<svg xmlns="http://www.w3.org/2000/svg" xmlns:xlink="http://www.w3.org/1999/xlink" width="179.528" height="36.012"><g fill="#24609e"><path d="M72.847 19.3c-.463.463-1.157.714-1.77.714-1.74 0-2.414-1.217-2.424-2.384-.01-1.177.724-2.444 2.424-2.444.614 0 1.237.21 1.7.664l.885-.855c-.724-.714-1.63-1.076-2.585-1.076-2.545 0-3.742 1.87-3.732 3.712.01 1.83 1.117 3.63 3.732 3.63 1.016 0 1.95-.332 2.676-1.046l-.905-.915z"/><use xlink:href="#B"/><use xlink:href="#C"/><path d="M89.095 14.11v1.157h1.217V14.11h-1.217zm1.237 2.012v4.98h-1.227v-4.98h1.227z"/><use xlink:href="#D"/><use xlink:href="#D" x="4.931"/><use xlink:href="#E"/><use xlink:href="#B" x="33.142"/><path d="M120.595 19.794h-3.953v-1.59h3.812v-1.237h-3.812v-1.62h3.953V14.06h-5.27v7.04h5.27v-1.308z"/><use xlink:href="#D" x="30.176"/><path d="M129.296 20.036c-.835 0-1.408-.634-1.408-1.408s.523-1.408 1.408-1.408 1.408.634 1.408 1.408-.573 1.408-1.408 1.408zm-1.52 3.138v-2.655c.352.543 1.127.704 1.65.704 1.59 0 2.505-1.147 2.505-2.595 0-1.46-1.016-2.595-2.545-2.595-.563 0-1.227.24-1.61.795v-.684h-1.227v7.03h1.227z"/><use xlink:href="#F"/><use xlink:href="#G"/><path d="M143.495 14.11v1.157h1.217V14.11h-1.217zm1.237 2.012v4.98h-1.227v-4.98h1.227z"/><use xlink:href="#H"/><path d="M151.992 14.07v7.03h1.217v-7.03h-1.217zm6.726 3.1c.775 0 1.438.583 1.438 1.448 0 .895-.664 1.46-1.438 1.46-.785 0-1.408-.593-1.408-1.46 0-.895.624-1.448 1.408-1.448zm1.52-3.098v2.746c-.292-.513-1.106-.795-1.63-.795-1.448 0-2.525.885-2.525 2.595 0 1.63 1.096 2.595 2.555 2.595.604 0 1.217-.2 1.6-.795v.684h1.227v-7.03h-1.227z"/><use xlink:href="#F" x="29.804"/><path d="M60.108 33.432v-7.04H58.8v7.04h1.318z"/><use xlink:href="#I"/><path d="M70.097 26.27c-.996 0-2.092.614-2.092 1.94v.332h-.483v1.076h.483v3.812h1.227V29.62h.493v-1.076h-.493v-.332c0-.604.443-.885.865-.885V26.27z"/><use xlink:href="#B" x="-3.718" y="12.331"/><path d="M79.2 28.343c-.503 0-1.016.09-1.398.704v-.573h-1.227v4.96H77.8v-2.615c0-.915.754-1.257 1.398-1.257v-1.217z"/><use xlink:href="#C" x="-0.05" y="12.33"/><path d="M93.15 29.157l.04-.684h1.177v4.96H93.2l-.06-.724c-.282.583-1.056.865-1.6.875-1.47.01-2.555-.895-2.555-2.635 0-1.7 1.137-2.605 2.585-2.595.664 0 1.298.312 1.58.805zm-1.47.292c-.815 0-1.47.553-1.47 1.5s.654 1.5 1.47 1.5c1.93 0 1.93-3.008 0-3.008zm1.398-3.158H91.63l-.744 1.368v.06h1.086l1.106-1.378v-.05zm4.55 6.095c-.382 0-.845-.23-.845-.704V29.54h.473v-1.056h-.463V26.37h-1.227v2.112h-.322v1.056h.322v2.143c0 1.237.986 1.8 2.062 1.8v-1.106zm.828-5.944V27.6h1.217v-1.157h-1.217zm1.237 2.012v4.98h-1.227v-4.98h1.227z"/><use xlink:href="#G" x="-37.703" y="12.331"/><use xlink:href="#H" x="-39.839" y="12.33"/><use xlink:href="#I" x="54.86"/><use xlink:href="#H" x="-23.379" y="12.33"/><path d="M138.127 32.125h-3.953v-1.6h3.812v-1.237h-3.812v-1.62h3.953V26.4h-5.27v7.04h5.27v-1.308zm3.533-2.625c.775 0 1.438.583 1.438 1.448 0 .895-.664 1.46-1.438 1.46-.785 0-1.408-.593-1.408-1.46 0-.895.624-1.448 1.408-1.448zm1.52-3.098v2.746c-.292-.513-1.106-.795-1.63-.795-1.448 0-2.525.885-2.525 2.595 0 1.63 1.096 2.595 2.555 2.595.604 0 1.217-.2 1.6-.795v.684h1.227V26.4h-1.227zm2.4 2.07v2.605c0 1.54.865 2.434 2.052 2.434.694 0 1.167-.24 1.68-.744l.08.674h1.096v-4.97h-1.217v2.535c0 .754-.513 1.388-1.267 1.388-.785 0-1.197-.573-1.197-1.328v-2.595h-1.227z"/><use xlink:href="#G" x="13.074" y="12.331"/><use xlink:href="#H" x="10.938" y="12.33"/><path d="M163.945 35.354c.614.966 2.414.865 2.666-.262.09-.493-.11-1.096-1.036-1.127l.12-.382c.694-.02 1.257-.24 1.81-.785l-.825-.805c-.302.302-.694.412-1.086.412-.764 0-1.408-.503-1.408-1.448 0-.865.604-1.47 1.428-1.47.342 0 .704.13.996.392l.775-.815c-.543-.533-1.086-.734-1.8-.734-1.438 0-2.635.865-2.635 2.625 0 1.448.795 2.283 1.88 2.535l-.312.895.292.22c.382-.262.966-.03.855.342-.12.392-.905.342-1.197-.04l-.533.443z"/><use xlink:href="#E" x="66.942" y="12.33"/><use xlink:href="#B" x="100.287" y="12.331"/><path d="M17.04.004c-1.758-.017-3.515.238-5.184.794-2.67.87-5.155 2.367-7.063 4.44C2.134 7.916.51 11.55.078 15.282c-.116 1.89-.155 3.82.307 5.67a17.16 17.16 0 0 0 5.29 9.081c2.6 2.38 5.966 3.888 9.467 4.277 1.676.208 3.38.07 5.04-.21 4.736-.915 8.993-3.96 11.417-8.127 1.73-2.9 2.52-6.336 2.357-9.7-.02-.31-.024-.632-.075-.934-.126.227-.037.632-.085.922-.06 2.308-.553 4.612-1.572 6.692-1.737 3.68-4.96 6.6-8.767 8.008-4.78 1.797-10.426 1.1-14.593-1.87-2.022-1.424-3.718-3.324-4.894-5.504-2.19-4.073-2.483-9.103-.757-13.394A15.61 15.61 0 0 1 7.16 4.422C10.016 1.674 13.98.218 17.917.16c.266-.034.618.054.83-.054-.55-.11-1.14-.103-1.708-.102z" stroke="#333" stroke-width=".006"/><path d="M37.9 22.303c-.583.408-1.027 1-1.522 1.51-1.28 1.467-2.55 3.07-3.033 4.994-.263 1.024-.054 2.228.796 2.923 1.136.953 2.682 1.15 4.108 1.268l2.294.014c-.306-.24-.766-.374-1.1-.617-1.3-.778-2.333-2.102-2.516-3.638-.306-2.18.415-4.32 1.027-6.383.01-.032-.003-.077-.045-.072z"/><path d="M48.87 17.774c-2.112.053-3.95 1.507-4.996 3.266-1.15 1.992-1.727 4.29-1.82 6.58-.053 1.863.75 3.868 2.44 4.802 1.613.94 3.692.574 5.163-.466 1.057-.805 1.962-1.82 2.552-3.02.088-.23.318-.462.31-.705-.308.084-.54.384-.828.533-1.128.708-2.332 1.483-3.697 1.552-.862.072-1.724-.406-2.136-1.17-.33-.573-.588-1.21-.48-1.88-.01-.826.55-1.606 1.347-1.834 1.416-.433 2.92-.048 4.333.183.08-.272-.13-.574-.3-.78-.782-.778-1.957-.914-3.002-1.01l-1.54-.033c.194-1.34.754-2.765 1.9-3.57 1.083-.727 2.518-.496 3.587.14.424.237.8.532 1.183.843.103-.15-.047-.42-.068-.612-.45-1.73-2.19-2.9-3.95-2.82z" stroke="#333" stroke-width=".006"/></g><g fill="#e9bb04"><path d="M40.256 14.7c-1.403.038-2.642 1.31-2.602 2.724-.043 1.045.58 2.042 1.5 2.505 1.146.67 2.695.162 3.4-.913.82-1.134.552-2.85-.54-3.71-.49-.406-1.13-.63-1.767-.605z" stroke="#333" stroke-width=".006"/><path d="M27.443 12.07C26.87 3.504 15.555 1.473 9.478 6.745c-7.077 5.66-4.927 19.8 4.96 21.797 8.292 1.912 16.665-3.824 13.975-12.483-2.554 8.538-8.7 8.7-12.273 7.566-3.562-1.277-4.922-3.41-5.417-6.186-.636-3.565 2.058-7.854 6.122-8.062 4.858-.364 8.267 5.857.997 8.772 6.966.585 9.52-1.902 9.6-6.078z" fill-rule="evenodd"/></g><defs ><path id="B" d="M76.646 16.042c-1.58 0-2.565 1.167-2.565 2.585 0 1.428.966 2.585 2.575 2.585s2.585-1.157 2.585-2.585c0-1.418-1.016-2.585-2.595-2.585zm.01 1.117c.825 0 1.348.724 1.348 1.47 0 .754-.453 1.46-1.348 1.46s-1.348-.704-1.348-1.46c0-.744.463-1.47 1.348-1.47z"/><path id="C" d="M84.614 21.102v-2.655c0-.654.412-1.227 1.076-1.227s.935.553.935 1.207v2.676h1.227v-2.676c0-1.49-.694-2.354-2.102-2.354-.644 0-1.217.2-1.66.905-.282-.684-.875-.925-1.47-.925-.473 0-1.046.18-1.308.684l.01-.604h-1.237v4.97h1.227v-2.655c0-.654.392-1.247 1.056-1.247.674 0 1.016.593 1.016 1.247v2.655h1.227z"/><path id="D" d="M95.366 16.656c-.573-.503-1.157-.654-1.93-.654-.905 0-2.092.402-2.092 1.55 0 1.127 1.117 1.47 2.052 1.54.704.04.986.18.986.523 0 .362-.433.604-.895.593-.553-.01-1.358-.302-1.7-.694l-.604.875c.724.754 1.51.885 2.293.885 1.418 0 2.132-.754 2.132-1.63 0-1.318-1.187-1.53-2.122-1.59-.634-.04-.925-.22-.925-.543 0-.312.322-.493.905-.493.473 0 .875.11 1.227.443l.684-.805z"/><path id="E" d="M105.198 16.827c-.282-.493-.915-.805-1.58-.805-1.448-.01-2.585.885-2.585 2.595 0 1.74 1.086 2.645 2.555 2.635.553-.01 1.328-.292 1.61-.875l.06.724h1.157v-4.96h-1.177l-.04.684zm-1.47.292c1.93 0 1.93 3.008 0 3.008-.815 0-1.47-.563-1.47-1.51s.654-1.5 1.47-1.5zm-.714-1.9c.392-.734.825-.14 1.318 0 .473.12.976-.11 1.267-.885l-.805-.382c-.312.624-.775.1-1.247-.01-.664-.15-1.056.272-1.298.865l.764.412z"/><path id="F" d="M137.756 19.06c.19-2.042-.845-3.068-2.505-3.068-1.61 0-2.635 1.086-2.635 2.595 0 1.59 1.016 2.645 2.726 2.645.754 0 1.61-.262 2.132-.805l-.785-.775c-.282.292-.875.463-1.328.463-.865 0-1.398-.443-1.48-1.056h3.873zm-3.852-1.016c.18-.644.724-.966 1.388-.966.704 0 1.207.322 1.288.966h-2.676z"/><path id="G" d="M142.14 19.663c-.302.302-.694.412-1.086.412-.764 0-1.408-.503-1.408-1.448 0-.865.604-1.47 1.428-1.47.342 0 .704.13.996.392l.775-.815c-.543-.533-1.086-.734-1.8-.734-1.438 0-2.635.865-2.635 2.625s1.197 2.625 2.635 2.625a2.55 2.55 0 0 0 1.911-.785l-.825-.805z"/><path id="H" d="M149.735 16.827c-.282-.493-.915-.805-1.58-.805-1.448-.01-2.585.885-2.585 2.595 0 1.74 1.086 2.645 2.555 2.635.553-.01 1.328-.292 1.61-.875v.724h1.217v-4.96h-1.217v.684zm-1.47.292c1.93 0 1.93 3.008 0 3.008-.815 0-1.47-.563-1.47-1.51s.654-1.5 1.47-1.5z"/><path id="I" d="M66.345 33.432v-2.605c0-1.56-.935-2.434-2.102-2.434-.624 0-1.127.15-1.63.644v-.573h-1.177v4.97h1.217v-2.635c0-.754.513-1.288 1.267-1.288.785 0 1.197.573 1.197 1.328v2.595h1.227z"/></defs></svg>