<svg xmlns="http://www.w3.org/2000/svg" width="52.926" height="34.414"><g fill="#24609e"><path d="M17.04.004c-1.758-.017-3.515.238-5.184.794-2.67.87-5.155 2.367-7.063 4.44C2.134 7.916.51 11.55.078 15.282c-.116 1.89-.155 3.82.307 5.67a17.16 17.16 0 0 0 5.29 9.081c2.6 2.38 5.966 3.888 9.467 4.277 1.676.208 3.38.07 5.04-.21 4.736-.915 8.993-3.96 11.417-8.127 1.73-2.9 2.52-6.336 2.357-9.7-.02-.31-.024-.632-.075-.934-.126.227-.037.632-.085.922-.06 2.308-.553 4.612-1.572 6.692-1.737 3.68-4.96 6.6-8.767 8.008-4.78 1.797-10.426 1.1-14.593-1.87-2.022-1.424-3.718-3.324-4.894-5.504-2.19-4.073-2.483-9.103-.757-13.394A15.61 15.61 0 0 1 7.16 4.422C10.016 1.674 13.98.218 17.917.16c.266-.034.618.054.83-.054-.55-.11-1.14-.103-1.708-.102z" stroke="#333" stroke-width=".006"/><path d="M37.9 22.303c-.583.408-1.027 1-1.522 1.51-1.28 1.467-2.55 3.07-3.033 4.994-.263 1.024-.054 2.228.796 2.923 1.136.953 2.682 1.15 4.108 1.268l2.294.014c-.306-.24-.766-.374-1.1-.617-1.3-.778-2.333-2.102-2.516-3.638-.306-2.18.415-4.32 1.027-6.383.01-.032-.003-.077-.045-.072z"/><path d="M48.87 17.774c-2.112.053-3.95 1.507-4.996 3.266-1.15 1.992-1.727 4.29-1.82 6.58-.053 1.863.75 3.868 2.44 4.802 1.613.94 3.692.574 5.163-.466 1.057-.805 1.962-1.82 2.552-3.02.088-.23.318-.462.31-.705-.308.084-.54.384-.828.533-1.128.708-2.332 1.483-3.697 1.552-.862.072-1.724-.406-2.136-1.17-.33-.573-.588-1.21-.48-1.88-.01-.826.55-1.606 1.347-1.834 1.416-.433 2.92-.048 4.333.183.08-.272-.13-.574-.3-.78-.782-.778-1.957-.914-3.002-1.01l-1.54-.033c.194-1.34.754-2.765 1.9-3.57 1.083-.727 2.518-.496 3.587.14.424.237.8.532 1.183.843.103-.15-.047-.42-.068-.612-.45-1.73-2.19-2.9-3.95-2.82z" stroke="#333" stroke-width=".006"/></g><g fill="#e9bb04"><path d="M40.256 14.7c-1.403.038-2.642 1.31-2.602 2.724-.043 1.045.58 2.042 1.5 2.505 1.146.67 2.695.162 3.4-.913.82-1.134.552-2.85-.54-3.71-.49-.406-1.13-.63-1.767-.605z" stroke="#333" stroke-width=".006"/><path d="M27.443 12.07C26.87 3.504 15.555 1.473 9.478 6.745c-7.077 5.66-4.927 19.8 4.96 21.797 8.292 1.912 16.665-3.824 13.975-12.483-2.554 8.538-8.7 8.7-12.273 7.566-3.562-1.277-4.922-3.41-5.417-6.186-.636-3.565 2.058-7.854 6.122-8.062 4.858-.364 8.267 5.857.997 8.772 6.966.585 9.52-1.902 9.6-6.078z" fill-rule="evenodd"/></g></svg>